<?xml version="1.0" standalone="no"?>
<!DOCTYPE svg PUBLIC "-//W3C//DTD SVG 20010904//EN"
 "http://www.w3.org/TR/2001/REC-SVG-20010904/DTD/svg10.dtd">
<svg version="1.0" xmlns="http://www.w3.org/2000/svg"
 width="1920.000000pt" height="1697.000000pt" viewBox="0 0 1920.000000 1697.000000"
 preserveAspectRatio="xMidYMid meet">
<metadata>
Created by potrace 1.16, written by Peter Selinger 2001-2019
</metadata>
<g transform="translate(0.000000,1697.000000) scale(0.100000,-0.100000)"
fill="#000000" stroke="none">
<path d="M16120 16614 c-14 -2 -59 -9 -100 -15 -293 -41 -753 -217 -1006 -385
-148 -97 -344 -323 -466 -535 -91 -159 -168 -386 -195 -574 -55 -391 96 -736
382 -871 125 -60 179 -69 385 -69 167 1 197 3 303 29 426 100 811 319 1073
612 214 238 350 456 428 685 45 133 58 215 58 354 0 111 -3 143 -26 218 -49
163 -119 281 -238 399 -77 75 -173 122 -292 143 -80 13 -241 18 -306 9z"/>
<path d="M17376 15344 c-243 -45 -510 -178 -660 -329 -124 -124 -225 -359
-262 -609 -64 -435 144 -720 487 -667 274 42 599 245 756 473 138 200 237 457
258 668 15 154 -43 317 -142 394 -30 24 -78 51 -106 61 -71 24 -231 28 -331 9z"/>
<path d="M13867 14678 c-44 -12 -128 -94 -253 -248 -425 -524 -706 -1253 -838
-2175 -72 -498 -95 -872 -116 -1817 -18 -810 -26 -861 -177 -1161 -170 -337
-447 -681 -1018 -1267 -718 -736 -936 -1000 -1104 -1336 -197 -395 -187 -717
32 -1052 73 -112 232 -284 322 -347 123 -87 265 -143 460 -182 141 -28 531
-25 725 6 443 69 827 188 1306 406 331 150 674 356 900 540 110 89 269 252
331 338 361 499 634 817 1357 1582 104 110 302 319 440 465 844 892 1205 1337
1396 1725 75 151 97 216 115 335 17 111 19 377 5 535 -71 757 -350 1632 -700
2192 -219 350 -505 635 -752 748 -118 54 -156 58 -640 61 -589 3 -668 13 -856
106 -161 79 -271 163 -499 380 -121 116 -159 140 -255 163 -71 17 -126 18
-181 3z"/>
<path d="M18001 14149 c-226 -48 -482 -174 -578 -283 -86 -97 -180 -322 -204
-486 -45 -308 68 -505 299 -518 233 -13 586 126 760 300 88 87 185 269 238
443 23 76 27 109 28 215 1 108 -2 131 -20 171 -31 67 -86 123 -147 150 -75 33
-246 37 -376 8z"/>
<path d="M18280 12979 c-123 -10 -274 -49 -351 -90 -132 -71 -293 -300 -345
-494 -22 -81 -18 -191 10 -251 28 -61 92 -118 156 -139 199 -66 549 -19 735
100 108 68 257 257 324 409 33 74 36 89 36 176 0 85 -3 100 -27 141 -50 85
-153 132 -328 149 -52 5 -99 9 -105 8 -5 0 -53 -4 -105 -9z"/>
<path d="M2778 12060 c-218 -39 -368 -162 -483 -395 -68 -138 -89 -231 -88
-380 1 -176 46 -341 144 -539 158 -317 453 -643 745 -824 240 -149 525 -257
782 -298 129 -20 354 -15 447 10 246 66 424 254 496 521 29 107 32 347 6 478
-71 357 -277 711 -557 961 -188 167 -643 363 -1035 446 -112 23 -377 35 -457
20z"/>
<path d="M18313 11930 c-88 -12 -179 -37 -239 -64 -99 -46 -198 -159 -270
-311 -154 -327 -27 -514 337 -491 118 7 265 43 350 86 81 41 181 141 256 257
161 247 133 439 -74 503 -78 24 -260 34 -360 20z"/>
<path d="M1492 10789 c-136 -43 -231 -168 -253 -334 -34 -259 140 -698 365
-921 292 -289 694 -421 918 -302 150 80 222 236 222 483 1 237 -74 484 -205
676 -115 170 -423 345 -711 403 -108 22 -257 20 -336 -5z"/>
<path d="M5137 10129 c-75 -18 -138 -61 -269 -185 -292 -277 -466 -387 -693
-436 -80 -18 -146 -21 -600 -28 -587 -8 -593 -9 -750 -100 -400 -229 -747
-704 -1019 -1392 -240 -609 -386 -1327 -374 -1838 6 -221 18 -290 79 -439 165
-405 563 -902 1574 -1966 995 -1048 1313 -1410 1612 -1834 230 -327 600 -614
1131 -880 492 -247 1010 -415 1497 -488 170 -25 563 -25 690 0 279 56 440 141
618 327 224 233 337 480 337 737 0 231 -110 518 -307 800 -169 242 -332 426
-863 978 -491 509 -612 644 -797 885 -174 227 -347 528 -402 699 -45 138 -63
410 -76 1121 -24 1338 -136 2099 -419 2848 -103 274 -209 481 -370 727 -130
197 -334 434 -397 459 -43 17 -140 20 -202 5z"/>
<path d="M842 9604 c-232 -72 -266 -396 -79 -769 100 -200 206 -302 422 -405
246 -117 493 -150 623 -84 106 55 161 158 170 322 8 169 -31 332 -126 515 -43
84 -69 121 -114 162 -107 99 -287 188 -489 240 -134 35 -325 43 -407 19z"/>
<path d="M655 8430 c-142 -21 -237 -70 -282 -147 -26 -44 -28 -56 -28 -143 1
-84 5 -104 32 -167 44 -104 133 -232 227 -328 95 -97 169 -138 331 -182 90
-24 118 -27 275 -27 161 -1 180 1 233 23 121 48 177 131 177 261 0 42 -7 103
-15 135 -49 190 -220 426 -357 493 -147 72 -413 109 -593 82z"/>
<path d="M564 7376 c-114 -26 -188 -82 -214 -162 -44 -131 49 -341 232 -523
99 -100 225 -151 423 -171 207 -21 351 19 410 114 28 46 30 56 29 145 0 84 -4
106 -32 176 -61 153 -181 304 -284 356 -92 46 -204 69 -363 74 -98 4 -158 1
-201 -9z"/>
</g>
</svg>
